<?xml version="1.0" standalone="no"?>
<!DOCTYPE svg PUBLIC "-//W3C//DTD SVG 20010904//EN"
 "http://www.w3.org/TR/2001/REC-SVG-20010904/DTD/svg10.dtd">
<svg version="1.0" xmlns="http://www.w3.org/2000/svg"
 width="494.000000pt" height="494.000000pt" viewBox="0 0 494.000000 494.000000"
 preserveAspectRatio="xMidYMid meet">
<metadata>
Created by potrace 1.11, written by Peter Selinger 2001-2013
</metadata>
<g transform="translate(0.000000,494.000000) scale(0.100000,-0.100000)"
fill="#000000" stroke="none">
<path d="M3703 4730 c-48 -12 -87 -29 -115 -52 -46 -35 -247 -207 -276 -236
-10 -9 -63 -57 -117 -107 -55 -49 -130 -119 -167 -153 -37 -35 -77 -72 -89
-83 -11 -10 -91 -85 -178 -167 -86 -82 -174 -166 -196 -186 -101 -95 -392
-374 -755 -726 -341 -330 -383 -370 -389 -370 -6 0 -139 358 -258 695 -57 160
-88 222 -138 270 -154 150 -432 67 -829 -249 -121 -95 -171 -146 -185 -188 -8
-22 -10 -442 -9 -1437 l3 -1406 24 -36 c28 -41 74 -76 118 -88 43 -12 4384
-11 4433 1 46 12 106 67 126 114 16 38 18 110 4 169 -5 22 -11 60 -15 85 -3
25 -8 52 -10 60 -2 8 -6 31 -9 50 -3 19 -14 85 -25 145 -11 61 -22 126 -25
145 -3 19 -8 46 -10 60 -3 14 -7 39 -10 55 -3 17 -8 41 -10 55 -3 14 -8 41
-10 60 -3 19 -19 114 -36 210 -17 96 -38 216 -46 265 -25 151 -18 145 -72 73
-166 -222 -320 -342 -481 -372 -96 -18 -275 -18 -346 0 -147 39 -248 131 -324
296 -75 163 -103 315 -102 548 l0 115 -32 1 c-30 1 -72 5 -217 19 -53 5 -99 9
-220 20 -30 2 -82 7 -115 10 -33 3 -82 8 -110 10 -27 3 -75 7 -105 10 -30 3
-77 8 -105 10 -86 7 -190 17 -192 19 -1 0 22 26 50 57 29 30 86 93 127 138 41
46 84 93 95 105 11 12 56 62 100 111 44 48 94 103 110 120 17 18 48 52 70 76
36 41 183 202 267 294 20 22 47 52 60 66 12 14 64 70 113 125 50 54 117 128
150 164 33 36 64 70 70 76 19 20 170 187 188 207 20 24 20 26 7 -44 -5 -30
-12 -75 -15 -101 -6 -54 -12 -100 -25 -178 -5 -30 -12 -80 -16 -110 -4 -30 -8
-62 -9 -70 -1 -8 -5 -42 -10 -75 -4 -33 -9 -69 -11 -80 -2 -11 -6 -42 -9 -70
-4 -27 -8 -61 -10 -75 -4 -28 -13 -95 -20 -152 -5 -42 -12 -98 -20 -155 -5
-45 -12 -104 -21 -198 -3 -38 -8 -72 -9 -75 -15 -25 -23 -472 -11 -595 27
-273 158 -458 357 -501 78 -17 274 8 341 42 99 51 332 260 478 429 140 162
260 327 308 422 33 65 90 227 98 282 3 20 8 39 10 42 2 4 6 24 9 45 4 22 8 46
10 54 22 85 23 316 1 359 -18 34 -62 48 -121 37 -33 -7 -34 -6 -45 36 -36 142
-102 203 -225 208 -71 3 -83 0 -113 -25 l-30 -25 -38 25 c-52 35 -119 35 -158
-1 -37 -35 -54 -77 -61 -155 -3 -35 -8 -84 -10 -109 -11 -107 -111 -297 -310
-585 -92 -133 -145 -202 -145 -189 0 5 4 35 10 67 5 32 12 86 15 120 3 34 8
73 10 87 3 14 7 48 10 75 3 28 7 66 10 85 2 19 9 78 15 130 6 52 13 106 15
120 2 14 7 50 10 80 3 30 10 91 16 135 17 137 18 149 24 205 3 30 7 71 10 90
3 19 8 60 11 90 3 30 7 66 9 80 1 14 5 54 9 90 4 36 9 81 11 100 2 19 7 64 10
100 4 36 8 76 10 90 2 14 6 57 10 97 24 259 29 376 15 432 -20 84 -52 95 -187
61z"/>
</g>
</svg>
