<?xml version="1.0" encoding="UTF-8"?>
<svg width="247px" height="228px" viewBox="0 0 247 228" version="1.1" xmlns="http://www.w3.org/2000/svg" xmlns:xlink="http://www.w3.org/1999/xlink">
    <!-- Generator: Sketch 52.5 (67469) - http://www.bohemiancoding.com/sketch -->
    <title>Path Copy 3@2x</title>
    <desc>Created with Sketch.</desc>
    <defs>
        <linearGradient x1="50%" y1="0%" x2="50%" y2="97.6020592%" id="linearGradient-1">
            <stop stop-color="#FEBD23" offset="0%"></stop>
            <stop stop-color="#FED923" offset="100%"></stop>
        </linearGradient>
    </defs>
    <g id="Page-1" stroke="none" stroke-width="1" fill="none" fill-rule="evenodd">
        <g id="Desktop" transform="translate(-655.000000, -630.000000)" fill="url(#linearGradient-1)">
            <path d="M819.95133,785.3824 C827.000066,798.3824 836.000066,800.3824 852.000066,798.3824 C856.973508,797.76072 861.751285,794.612864 866.000066,791.3824 C869.242522,788.917072 873.575856,783.917072 879.000066,776.3824 L890.977301,845.679261 C891.917921,851.121419 888.268703,856.295682 882.826546,857.236302 C882.264043,857.333525 881.694249,857.382404 881.123406,857.382404 L665,857.382487 C659.477153,857.382489 654.999998,852.905338 654.999997,847.38249 C654.999997,847.382488 654.999997,847.382485 654.999997,847.382483 L655.000068,711.917282 C655.000069,709.002809 656.271545,706.23336 658.481783,704.333624 C687.083454,679.750027 704.589549,676.432952 711.000066,694.3824 C717.666732,713.049067 722.666732,726.715733 726.000066,735.3824 C797.333399,666.049067 834.666732,631.3824 838.000066,631.3824 C843.000066,631.3824 850.000066,625.3824 850.000066,638.3824 C850.000066,647.049067 846.000066,683.715733 838.000066,748.3824 C853.333399,727.715733 861.000066,714.049067 861.000066,707.3824 C861.000066,697.3824 864.000066,694.3824 868.000066,694.3824 C869.637113,694.3824 874.885391,694.287658 872.000066,706 C870.790251,710.910976 866.123584,722.577643 858.000066,741 C857.944175,743.177877 858.944175,741.844544 861.000066,737 C864.953035,727.685138 872.026483,710.928853 876.000066,702 C877.241625,699.210149 880.701436,695 881.000066,695 C884.000066,695 886.000066,694.3824 889.000066,697.3824 C889.538455,697.920789 890.476197,699.287639 890.000066,702 C889.138337,706.908985 883.805003,722.369785 874.000066,748.3824 C874.165708,751.0241 875.165708,750.229967 877.000066,746 C879.441559,740.369996 888.597461,713.032518 890.000066,711 C893.137628,706.453348 898.900981,706.832858 900.000066,707.3824 C904.000066,709.3824 901.000066,737.3824 893.000066,750.3824 C885.000066,763.3824 862.000066,789.3824 852.000066,791.3824 C842.000066,793.3824 829.000066,795.3824 822.000066,776.3824 C820.09482,771.211019 819.411908,762.094835 819.95133,749.033847 C820.472547,736.41364 823.822126,709.196491 830.000066,667.3824 L759.000066,745.3824 L814.000066,750.3824 C813.268418,765.049067 815.252173,776.715733 819.95133,785.3824 Z" id="Path-Copy-3"></path>
        </g>
    </g>
</svg>