<?xml version="1.0" encoding="UTF-8"?>
<svg width="247px" height="228px" viewBox="0 0 247 228" version="1.1" xmlns="http://www.w3.org/2000/svg" xmlns:xlink="http://www.w3.org/1999/xlink">
    <!-- Generator: Sketch 52.5 (67469) - http://www.bohemiancoding.com/sketch -->
    <title>Path Copy 2@2x</title>
    <desc>Created with Sketch.</desc>
    <defs>
        <linearGradient x1="50%" y1="0%" x2="50%" y2="97.6020592%" id="linearGradient-1">
            <stop stop-color="#FEBD23" offset="0%"></stop>
            <stop stop-color="#FED923" offset="100%"></stop>
        </linearGradient>
    </defs>
    <g id="Page-1" stroke="none" stroke-width="1" fill="none" fill-rule="evenodd">
        <g id="Desktop" transform="translate(-203.000000, -285.000000)" fill="url(#linearGradient-1)">
            <path d="M367.951264,440.3824 C375,453.3824 384,455.3824 400,453.3824 C404.973443,452.76072 409.751219,449.612864 414,446.3824 C417.242457,443.917072 421.57579,438.917072 427,431.3824 L438.977235,500.679257 C439.917854,506.121415 436.268637,511.295678 430.826479,512.236298 C430.263976,512.333521 429.69418,512.3824 429.123337,512.3824 L213,512.3824 C207.477153,512.3824 203,507.905247 203,502.3824 L202.999997,366.917294 C202.999997,364.002817 204.271474,361.233364 206.481715,359.333626 C235.083388,334.750027 252.589483,331.432952 259,349.3824 C265.666667,368.049067 270.666667,381.715733 274,390.3824 C345.333333,321.049067 382.666667,286.3824 386,286.3824 C391,286.3824 398,280.3824 398,293.3824 C398,302.049067 394,338.715733 386,403.3824 C401.333333,382.715733 409,369.049067 409,362.3824 C409,352.3824 412,349.3824 416,349.3824 C418.666667,349.3824 420.666667,350.3824 422,352.3824 C423.333333,350.3824 425,349.3824 427,349.3824 C430,349.3824 434,349.3824 437,352.3824 C439,354.3824 440.333333,357.715733 441,362.3824 C443,361.049067 445.333333,361.049067 448,362.3824 C452,364.3824 449,392.3824 441,405.3824 C433,418.3824 410,444.3824 400,446.3824 C390,448.3824 377,450.3824 370,431.3824 C368.094755,426.211019 367.411843,417.094835 367.951264,404.033847 C368.472482,391.41364 371.82206,364.196491 378,322.3824 L307,400.3824 L362,405.3824 C361.268352,420.049067 363.252107,431.715733 367.951264,440.3824 Z" id="Path-Copy-2"></path>
        </g>
    </g>
</svg>